<?xml version="1.0" encoding="UTF-8"?>
<svg width="24px" height="24px" viewBox="0 0 24 24" version="1.1" xmlns="http://www.w3.org/2000/svg" xmlns:xlink="http://www.w3.org/1999/xlink">
    <title>Icon/Arrow/Back</title>
    <defs>
        <rect id="path-1" x="0" y="0" width="24" height="24"></rect>
    </defs>
    <g id="Page-1" stroke="none" stroke-width="1" fill="none" fill-rule="evenodd">
        <g id="Icon/Arrow/Back">
            <mask id="mask-2" fill="white">
                <use xlink:href="#path-1"></use>
            </mask>
            <g id="Rectangle"></g>
            <path d="M10.5690886,1.17187442e-05 C16.3970545,1.17187442e-05 21.1381772,4.74146253 21.1381772,10.5691003 C21.1381772,13.1325376 20.2209169,15.4857044 18.6973666,17.3176305 L23.7141447,22.3346258 C24.0952851,22.7154381 24.0952851,23.3333441 23.7141447,23.7141564 C23.523551,23.9047032 23.2738011,24 23.0243794,24 C22.7746295,24 22.5251609,23.9047032 22.3346141,23.7141564 L17.3176188,18.6973783 C15.4856927,20.2209286 13.1325259,21.1381889 10.5690886,21.1381889 C4.74145081,21.1381889 0,16.3970662 0,10.5691003 C0,4.74146253 4.74145081,1.17187442e-05 10.5690886,1.17187442e-05 Z M10.5690886,1.95122952 C5.81723153,1.95122952 1.9512178,5.81729013 1.9512178,10.5691472 C1.9512178,15.3210042 5.81723153,19.187018 10.5690886,19.187018 C15.3209456,19.187018 19.1869594,15.3209574 19.1869594,10.5691003 C19.1869594,5.81724325 15.3209456,1.95122952 10.5690886,1.95122952 Z" id="Combined-Shape" fill="#85859B" fill-rule="nonzero" mask="url(#mask-2)"></path>
        </g>
    </g>
</svg>